<svg width="49" height="52" viewBox="0 0 49 52" fill="none" xmlns="http://www.w3.org/2000/svg">
<path d="M41.7836 24.4489C41.2923 24.4489 40.8212 24.2537 40.4738 23.9064C40.1265 23.559 39.9313 23.0879 39.9313 22.5966V17.3658C39.9313 9.95679 33.0853 4.02954 24.6687 4.02954C16.252 4.02954 9.40602 10.0309 9.40602 17.3658V22.5966C9.40602 23.0879 9.21087 23.559 8.8635 23.9064C8.51614 24.2537 8.04501 24.4489 7.55375 24.4489C7.0625 24.4489 6.59137 24.2537 6.24401 23.9064C5.89664 23.559 5.70149 23.0879 5.70149 22.5966V17.3658C5.70149 7.94152 14.2219 0.265747 24.6687 0.265747C35.1154 0.265747 43.6358 7.94152 43.6358 17.3658V22.5966C43.6378 22.8404 43.5912 23.0822 43.4989 23.3078C43.4065 23.5334 43.2701 23.7384 43.0977 23.9108C42.9253 24.0832 42.7203 24.2195 42.4947 24.3119C42.2691 24.4043 42.0274 24.4509 41.7836 24.4489Z" fill="url(#paint0_linear_0_267)"/>
<path d="M36.7748 41.8762C36.2836 41.8762 35.8125 41.681 35.4651 41.3337C35.1177 40.9863 34.9226 40.5152 34.9226 40.0239V22.4348C34.938 21.9539 35.1399 21.4979 35.4856 21.1632C35.8313 20.8286 36.2937 20.6416 36.7748 20.6418C43.1614 20.6418 48.3626 25.4281 48.3626 31.2961C48.3626 37.164 43.1614 41.8762 36.7748 41.8762ZM38.6271 24.4797V37.979C40.2488 37.7105 41.7298 36.8954 42.8242 35.6689C43.9186 34.4424 44.5605 32.8785 44.6432 31.2368C44.5638 29.5925 43.9234 28.0251 42.8287 26.7956C41.734 25.5661 40.2512 24.7488 38.6271 24.4797ZM12.5028 41.8762C6.11619 41.8762 0.915039 37.1048 0.915039 31.2368C0.915039 25.3688 6.11619 20.6418 12.5028 20.6418C12.994 20.6418 13.4652 20.837 13.8125 21.1844C14.1599 21.5317 14.3551 22.0029 14.3551 22.4941V40.0239C14.3551 40.5152 14.1599 40.9863 13.8125 41.3337C13.4652 41.681 12.994 41.8762 12.5028 41.8762ZM10.6505 24.4797C9.02648 24.7488 7.54362 25.5661 6.44895 26.7956C5.35427 28.0251 4.71386 29.5925 4.63438 31.2368C4.71715 32.8785 5.35904 34.4424 6.45343 35.6689C7.54782 36.8954 9.02885 37.7105 10.6505 37.979V24.4797Z" fill="url(#paint1_linear_0_267)"/>
<path d="M36.1693 47.9083H30.0346C29.5433 47.9083 29.0722 47.7131 28.7248 47.3658C28.3775 47.0184 28.1823 46.5473 28.1823 46.056C28.1823 45.5648 28.3775 45.0937 28.7248 44.7463C29.0722 44.3989 29.5433 44.2038 30.0346 44.2038H36.1693C37.1282 44.2038 38.0478 43.8228 38.7259 43.1448C39.404 42.4667 39.7849 41.5471 39.7849 40.5882V39.7732C39.7849 39.2819 39.98 38.8108 40.3274 38.4634C40.6748 38.116 41.1459 37.9209 41.6371 37.9209C42.1284 37.9209 42.5995 38.116 42.9469 38.4634C43.2943 38.8108 43.4894 39.2819 43.4894 39.7732V40.5882C43.4894 42.5296 42.7182 44.3915 41.3454 45.7643C39.9726 47.1371 38.1107 47.9083 36.1693 47.9083Z" fill="url(#paint2_linear_0_267)"/>
<path d="M26.8628 51.3903H23.2027C21.8587 51.3903 20.5696 50.8564 19.6193 49.906C18.6689 48.9556 18.1349 47.6666 18.1349 46.3226V46.1151C18.1389 44.7736 18.6745 43.4884 19.6245 42.5412C20.5745 41.594 21.8612 41.0621 23.2027 41.0621H26.8628C28.2029 41.0621 29.4882 41.5945 30.4358 42.5421C31.3834 43.4897 31.9158 44.775 31.9158 46.1151V46.3226C31.9158 47.6641 31.3839 48.9508 30.4367 49.9008C29.4895 50.8508 28.2043 51.3864 26.8628 51.3903ZM23.2324 44.7667C22.8734 44.7666 22.5288 44.9082 22.2736 45.1607C22.0183 45.4132 21.873 45.7561 21.8691 46.1151V46.3226C21.8691 46.6841 22.0127 47.0309 22.2684 47.2865C22.524 47.5422 22.8708 47.6858 23.2324 47.6858H26.8628C27.2218 47.6819 27.5647 47.5366 27.8172 47.2813C28.0697 47.0261 28.2113 46.6816 28.2112 46.3226V46.1151C28.2112 45.7575 28.0692 45.4145 27.8163 45.1616C27.5634 44.9087 27.2204 44.7667 26.8628 44.7667H23.2324Z" fill="url(#paint3_linear_0_267)"/>
<defs>
<linearGradient id="paint0_linear_0_267" x1="5.70149" y1="15.1787" x2="43.6359" y2="15.1787" gradientUnits="userSpaceOnUse">
<stop stop-color="#2272FF"/>
<stop offset="1" stop-color="#7661FC"/>
</linearGradient>
<linearGradient id="paint1_linear_0_267" x1="0.915039" y1="33.7364" x2="48.3626" y2="33.7364" gradientUnits="userSpaceOnUse">
<stop stop-color="#2272FF"/>
<stop offset="1" stop-color="#7661FC"/>
</linearGradient>
<linearGradient id="paint2_linear_0_267" x1="28.1823" y1="44.0798" x2="43.4894" y2="44.0798" gradientUnits="userSpaceOnUse">
<stop stop-color="#2272FF"/>
<stop offset="1" stop-color="#7661FC"/>
</linearGradient>
<linearGradient id="paint3_linear_0_267" x1="18.1349" y1="47.4312" x2="31.9158" y2="47.4312" gradientUnits="userSpaceOnUse">
<stop stop-color="#2272FF"/>
<stop offset="1" stop-color="#7661FC"/>
</linearGradient>
</defs>
</svg>
